<svg width="512" height="512" xmlns="http://www.w3.org/2000/svg">
  <!-- Cream background -->
  <rect width="512" height="512" fill="#faf8f3"/>

  <!-- Lined paper effect -->
  <g stroke="#d4c5b9" stroke-width="2">
    <line x1="0" y1="64" x2="512" y2="64"/>
    <line x1="0" y1="96" x2="512" y2="96"/>
    <line x1="0" y1="128" x2="512" y2="128"/>
    <line x1="0" y1="160" x2="512" y2="160"/>
    <line x1="0" y1="192" x2="512" y2="192"/>
    <line x1="0" y1="224" x2="512" y2="224"/>
    <line x1="0" y1="256" x2="512" y2="256"/>
    <line x1="0" y1="288" x2="512" y2="288"/>
    <line x1="0" y1="320" x2="512" y2="320"/>
    <line x1="0" y1="352" x2="512" y2="352"/>
    <line x1="0" y1="384" x2="512" y2="384"/>
    <line x1="0" y1="416" x2="512" y2="416"/>
    <line x1="0" y1="448" x2="512" y2="448"/>
  </g>

  <!-- Red margin line -->
  <line x1="85" y1="0" x2="85" y2="512" stroke="#e8b4b8" stroke-width="4"/>

  <!-- Checkmarks -->
  <g stroke="#5b8ec4" stroke-width="12" fill="none" stroke-linecap="round" stroke-linejoin="round">
    <path d="M 140 170 L 170 200 L 240 130"/>
    <path d="M 140 260 L 170 290 L 240 220"/>
    <path d="M 140 350 L 170 380 L 240 310"/>
  </g>
</svg>
